PathFileType	4	(X/Y/Z)	/Users/itak/Documents/Research/Walk-IL/dataset/trc/00052_00006.trc
DataRate	CameraRate	NumFrames	NumMarkers	Units	OrigDataRate	OrigDataStartFrame	OrigNumFrames
100.000000	100.000000	4	53	mm	100.000000	265	530
Frame#	Time	RPSI			LPSI			L3			STRN			T10			C7			CLAV			RBAK			LBAK			LSHO			LUPA			LAEL			LAOL			LWTS			LWPS			LFRA			LIFD			LHPS			LHTS			RSHO			RUPA			RAEL			RAOL			RWTS			RWPS			RFRA			RIFD			RHTS			RHPS			RBHD			LFHD			RFHD			LBHD			LHIP			RHIP			RASI			LASI			LKNE			LTHI			LANK			LTIP			LTOE			LMT1			LMT5			LHEE			RKNE			RTHI			RANK			RTIP			RTOE			RMT1			RMT5			RHEE			
		X1	Y1	Z1	X2	Y2	Z2	X3	Y3	Z3	X4	Y4	Z4	X5	Y5	Z5	X6	Y6	Z6	X7	Y7	Z7	X8	Y8	Z8	X9	Y9	Z9	X10	Y10	Z10	X11	Y11	Z11	X12	Y12	Z12	X13	Y13	Z13	X14	Y14	Z14	X15	Y15	Z15	X16	Y16	Z16	X17	Y17	Z17	X18	Y18	Z18	X19	Y19	Z19	X20	Y20	Z20	X21	Y21	Z21	X22	Y22	Z22	X23	Y23	Z23	X24	Y24	Z24	X25	Y25	Z25	X26	Y26	Z26	X27	Y27	Z27	X28	Y28	Z28	X29	Y29	Z29	X30	Y30	Z30	X31	Y31	Z31	X32	Y32	Z32	X33	Y33	Z33	X34	Y34	Z34	X35	Y35	Z35	X36	Y36	Z36	X37	Y37	Z37	X38	Y38	Z38	X39	Y39	Z39	X40	Y40	Z40	X41	Y41	Z41	X42	Y42	Z42	X43	Y43	Z43	X44	Y44	Z44	X45	Y45	Z45	X46	Y46	Z46	X47	Y47	Z47	X48	Y48	Z48	X49	Y49	Z49	X50	Y50	Z50	X51	Y51	Z51	X52	Y52	Z52	X53	Y53	Z53	

266	2.65	263.1029968261719	1022.8818359375	-127.677734375	250.5597229003906	1007.644165039062	-303.1581115722656	266.6368408203125	1078.916625976562	-215.3986968994141	545.6965942382812	1244.585327148438	-219.9124298095703	272.957275390625	1212.200805664062	-211.306884765625	360.9298400878906	1470.3369140625	-216.5028991699219	529.8470458984375	1362.288330078125	-223.0247955322266	287.8255004882812	1340.056884765625	-136.6361541748047	331.1817932128906	1434.749633789062	-316.6085815429688	431.0980834960938	1427.190673828125	-392.6413879394531	397.7600708007812	1303.394409179688	-469.7892150878906	398.3896179199219	1088.497436523438	-495.8126831054688	344.0641784667969	1075.214721679688	-405.1004943847656	499.7035827636719	852.1995239257812	-438.9349670410156	433.6285705566406	837.736083984375	-489.5079345703125	417.761962890625	978.6397094726562	-504.2250061035156	521.1737670898438	665.7539672851562	-416.9367980957031	468.9779663085938	757.2802734375	-485.9540710449219	523.55224609375	770.6781005859375	-441.7167663574219	430.8439025878906	1427.5419921875	-44.84468460083008	420.1023559570312	1359.28076171875	19.94752311706543	390.1522827148438	1096.087890625	68.79815673828125	396.3584289550781	1070.126220703125	-26.95151138305664	552.5425415039062	861.5010375976562	9.260575294494629	493.0898132324219	835.29931640625	67.51310729980469	409.6341247558594	1014.081359863281	76.52384948730469	586.45556640625	676.7905883789062	-14.36748504638672	590.6683349609375	764.2421264648438	2.592349767684937	542.8485107421875	751.4710083007812	61.25441360473633	399.9561767578125	1634.24609375	-282.7272033691406	563.3286743164062	1672.895751953125	-146.7145690917969	572.29736328125	1681.83251953125	-272.6376342773438	400.70703125	1618.487182617188	-145.5963592529297	359.7771301269531	940.5848999023438	-394.0806274414062	321.6328125	946.96142578125	-50.17713165283203	447.1857299804688	951.2617797851562	-69.2864990234375	462.3672790527344	945.5293579101562	-334.9688720703125	555.528076171875	515.644775390625	-342.3007202148438	483.9884948730469	636.1600952148438	-391.8730163574219	572.5609741210938	48.32917404174805	-383.6518859863281	567.520263671875	270.0687866210938	-377.4765319824219	772.3863525390625	44.98447036743164	-362.9409484863281	723.443603515625	40.30368804931641	-315.9491271972656	676.8582153320312	39.43235015869141	-417.2435302734375	515.1067504882812	42.10767364501953	-312.2898864746094	342.6594543457031	498.7699279785156	-71.22109985351562	384.0872802734375	767.6663208007812	-41.51443099975586	121.1719055175781	56.54086303710938	-79.61985778808594	288.9514465332031	381.1789245605469	-65.78883361816406	327.3829650878906	37.7313232421875	-134.6441040039062	265.7373962402344	44.89291763305664	-167.1742553710938	247.0386657714844	45.09722137451172	-70.67011260986328	69.56918334960938	73.21157073974609	-132.3626861572266	
267	2.66	255.4891357421875	1022.907348632812	-124.9821624755859	241.9253082275391	1007.879943847656	-300.4089965820312	258.5243835449219	1079.083862304688	-212.7266845703125	537.4979248046875	1245.0517578125	-217.9086761474609	264.5045471191406	1212.422119140625	-208.7334136962891	352.5122985839844	1470.628051757812	-214.3054656982422	521.4849243164062	1362.732177734375	-220.9777374267578	279.7295532226562	1340.26123046875	-134.2402954101562	322.6593322753906	1434.95458984375	-314.3562927246094	422.4509887695312	1427.409545898438	-390.5189208984375	389.2122497558594	1303.436889648438	-467.4549865722656	390.135986328125	1088.424438476562	-493.0365905761719	336.1341552734375	1075.23193359375	-402.1181640625	492.3880615234375	852.5933227539062	-435.9930725097656	426.0986938476562	837.767822265625	-486.1943664550781	409.777099609375	978.6118774414062	-501.2730102539062	514.4713134765625	666.5628662109375	-413.8460083007812	461.6710510253906	757.3944702148438	-482.5106811523438	516.4552612304688	771.1084594726562	-438.6273803710938	422.7097473144531	1427.970581054688	-42.70223236083984	412.1217956542969	1359.7412109375	22.1406192779541	382.5107727050781	1096.510986328125	71.12998199462891	388.435791015625	1070.570678710938	-24.61705207824707	544.419921875	861.6544189453125	11.10893630981445	485.3329467773438	835.7052612304688	69.83733367919922	401.9386901855469	1014.530639648438	78.81029510498047	577.7553100585938	676.787841796875	-12.27649307250977	582.296142578125	764.3023071289062	4.434682846069336	534.82080078125	751.7724609375	63.45071792602539	391.9493713378906	1634.896606445312	-280.6201171875	555.53271484375	1672.980590820312	-144.7255554199219	564.4296875	1681.88720703125	-270.6326904296875	392.7500915527344	1619.119506835938	-143.4736938476562	351.3143615722656	941.2392578125	-392.1557006835938	314.6317138671875	946.8786010742188	-47.89068984985352	439.9012451171875	951.25	-67.90522766113281	453.6214904785156	946.186279296875	-333.6231384277344	548.391845703125	516.3184814453125	-341.6187133789062	476.12158203125	636.75244140625	-391.7920837402344	564.5637817382812	48.72887802124023	-384.3781433105469	559.8054809570312	270.9036560058594	-377.2712097167969	763.9804077148438	47.57315826416016	-361.6489868164062	714.6558837890625	41.9214973449707	-315.1994934082031	669.08447265625	40.97649383544922	-417.0820922851562	506.7893676757812	41.90200805664062	-313.4581909179688	336.6832275390625	498.6340026855469	-70.69860076904297	377.2769165039062	767.4708251953125	-40.27881622314453	120.4668197631836	54.58955001831055	-80.23989105224609	284.4329223632812	380.4309997558594	-65.91689300537109	327.4327697753906	37.68627166748047	-134.6514892578125	265.4342346191406	44.32914352416992	-167.5286407470703	246.6026153564453	44.85219192504883	-71.22480010986328	68.61800384521484	70.06996917724609	-133.1051635742188	
268	2.67	248.0470886230469	1022.946350097656	-122.3786163330078	233.49267578125	1008.087768554688	-297.7446899414062	250.5561981201172	1079.307250976562	-210.1510009765625	529.392333984375	1245.6630859375	-216.0819854736328	256.2018737792969	1212.694946289062	-206.2818908691406	344.08984375	1471.001342773438	-212.2554016113281	513.19189453125	1363.322265625	-219.0913391113281	271.6987609863281	1340.521362304688	-131.9839477539062	314.1475219726562	1435.2314453125	-312.25732421875	413.8278198242188	1427.739379882812	-388.5467224121094	380.7918395996094	1303.572387695312	-465.2756652832031	382.1779479980469	1088.430786132812	-490.4038696289062	328.3344421386719	1075.338134765625	-399.3793334960938	485.2105712890625	853.0599365234375	-433.0185852050781	418.8312377929688	837.8924560546875	-482.9951171875	402.1018371582031	978.6749267578125	-498.4265747070312	507.9120483398438	667.5913696289062	-410.8677368164062	454.6238708496094	757.605224609375	-479.1442565917969	509.503662109375	771.6141967773438	-435.4759521484375	414.6202697753906	1428.495727539062	-40.71323394775391	404.1701354980469	1360.298706054688	24.16820907592773	374.7856750488281	1097.085815429688	73.336181640625	380.4703063964844	1071.126220703125	-22.40093612670898	536.1351928710938	861.8746948242188	12.97638320922852	477.3639526367188	836.21240234375	72.14550018310547	394.098388671875	1015.120727539062	81.00318145751953	568.8472290039062	676.8369750976562	-10.11580848693848	573.7346801757812	764.4122314453125	6.334349632263184	526.5647583007812	752.14990234375	65.67691040039062	383.9524230957031	1635.689086914062	-278.6252136230469	547.734619140625	1673.184814453125	-142.8311920166016	556.5664672851562	1682.076782226562	-268.7283325195312	384.7997741699219	1619.876586914062	-141.4606475830078	343.0375061035156	941.9907836914062	-390.3621520996094	307.9275817871094	946.8212280273438	-45.68737411499023	432.8272705078125	951.3226928710938	-66.64144134521484	445.0809020996094	946.972900390625	-332.3976440429688	541.7357177734375	516.9595336914062	-340.6840515136719	468.9540405273438	637.4649047851562	-391.3225402832031	554.2662963867188	48.93057250976562	-385.028076171875	551.06787109375	271.5135498046875	-376.9503784179688	753.3408203125	50.10525894165039	-360.7886352539062	703.72119140625	43.56680679321289	-314.6334533691406	658.9752807617188	42.25793075561523	-416.9990844726562	496.2291564941406	41.6192741394043	-314.480224609375	331.0812072753906	498.5162353515625	-70.42449951171875	370.7992553710938	767.2821655273438	-39.26885986328125	119.8586654663086	52.84942245483398	-80.92283630371094	280.2369384765625	379.7667541503906	-66.18582916259766	327.4887390136719	37.62746047973633	-134.6638488769531	265.1970825195312	43.7797737121582	-167.9186096191406	246.2097015380859	44.68009185791016	-71.79920959472656	67.82643890380859	67.18447875976562	-133.9259185791016	
269	2.68	240.7452545166016	1023.014221191406	-119.9037933349609	225.2835388183594	1008.286682128906	-295.197265625	242.7322998046875	1079.587036132812	-207.6972961425781	521.3756103515625	1246.408325195312	-214.4328308105469	248.0676727294922	1213.025512695312	-203.9715118408203	335.68017578125	1471.450439453125	-210.3468170166016	504.9752502441406	1364.0498046875	-217.3688659667969	263.7235412597656	1340.840454101562	-129.8705444335938	305.6513671875	1435.579467773438	-310.3071899414062	405.2330627441406	1428.181030273438	-386.7244873046875	372.4866027832031	1303.802490234375	-463.2491760253906	374.5176086425781	1088.529174804688	-487.9116516113281	320.6695251464844	1075.529174804688	-396.8777770996094	478.1748657226562	853.603515625	-430.0141296386719	411.8450927734375	838.1224365234375	-479.9351196289062	394.7482299804688	978.8396606445312	-495.6899108886719	501.5501098632812	668.8521118164062	-408.0180969238281	447.8625183105469	757.9307861328125	-475.8887939453125	502.7071533203125	772.2036743164062	-432.2711181640625	406.5829467773438	1429.113159179688	-38.87717056274414	396.2498474121094	1360.953002929688	26.03560066223145	366.9880065917969	1097.802612304688	75.41993713378906	372.4652404785156	1071.784912109375	-20.30218124389648	527.7005004882812	862.162109375	14.86380577087402	469.1873474121094	836.8078002929688	74.42900085449219	386.1121520996094	1015.846740722656	83.09886932373047	559.7648315429688	676.9464721679688	-7.898642063140869	565.001708984375	764.5761108398438	8.289637565612793	518.093994140625	752.5953369140625	67.92140960693359	375.9618225097656	1636.609619140625	-276.741943359375	539.9314575195312	1673.506469726562	-141.0313110351562	548.7021484375	1682.40185546875	-266.919677734375	376.8521118164062	1620.739501953125	-139.5630340576172	334.935546875	942.8348999023438	-388.6994934082031	301.4598693847656	946.7897338867188	-43.59500885009766	425.9187927246094	951.4844360351562	-65.48147583007812	436.7553405761719	947.8729248046875	-331.2716064453125	535.4279174804688	517.5656127929688	-339.5583190917969	462.3821411132812	638.3117065429688	-390.4142456054688	541.6368408203125	48.9376220703125	-385.516357421875	541.2142333984375	271.907958984375	-376.5461120605469	740.4678955078125	52.35971450805664	-360.4931945800781	690.687744140625	45.11552047729492	-314.3417663574219	646.4509887695312	43.1100959777832	-417.0127258300781	483.4257507324219	41.39239883422852	-315.2152404785156	325.8170776367188	498.4177856445312	-70.38704681396484	364.6132202148438	767.1207275390625	-38.46482849121094	119.3157501220703	51.30134582519531	-81.69991302490234	276.2980346679688	379.1990051269531	-66.568115234375	327.5552978515625	37.55663299560547	-134.6761474609375	265.0306091308594	43.25458145141602	-168.34375	245.8426361083984	44.57395172119141	-72.39680480957031	67.17854309082031	64.54060363769531	-134.8664855957031	
